# xmcd
#
# Track frame offsets:
#	150
#	34106
#	47249
#	59651
#	74734
#	100884
#	106735
#	117449
#	140389
#	149135
#	163041
#	173956
#	183673
#	207198
#	255697
#
# Disc length: 3615 seconds
#
# Revision: 3
# Processed by: cddbd v1.5.2PL0 Copyright (c) Steve Scherf et al.
# Submitted via: EasyCDDAExtractor 16.0.6.1
#
DISCID=ef0e1d0f
DTITLE=Συλλογικός δίσκος - La Vestale 1-Spontini, Μ. Κάλλας
DYEAR=1954
DGENRE=Κλασική όπερα
TTITLE0=Άνευ ερμηνευτού - Preludio
TTITLE1=Enzo Sordello-Franco Corelli - Presso il sublime tempio
TTITLE2=Enzo Sordello - Tu nascondi a un fido core
TTITLE3=Franco Corelli - Quando amistà
TTITLE4=Χορωδία - Alma Vesta, del ciel pura figlia
TTITLE5=Ebe Stignani - Vestali, in questo giorno
TTITLE6=Ebe Stignani - Giulia, rimani
TTITLE7=Ebe Stignani - È l'amore un mostro, un barbaro
TTITLE8=Κάλλας Μαρία - Oh di funesta possa
TTITLE9=Κάλλας Μαρία - Ti vedrò fra momenti
TTITLE10=Χορωδία - Di lauri il suol spargiamo
TTITLE11=Franco Corelli - Trionfan le armi nostre
TTITLE12=Franco Corelli - Ascolti?... questa notte
TTITLE13=Άνευ ερμηνευτού - Ballet
TTITLE14=Nicola Rossi Lemeni - Omai cessi il tripudio
EXTD=
EXTT0=
EXTT1=
EXTT2=
EXTT3=
EXTT4=
EXTT5=
EXTT6=
EXTT7=
EXTT8=
EXTT9=
EXTT10=
EXTT11=
EXTT12=
EXTT13=
EXTT14=
PLAYORDER=
